<?xml version="1.0" encoding="UTF-8" standalone="no"?><!DOCTYPE svg PUBLIC "-//W3C//DTD SVG 1.1//EN" "http://www.w3.org/Graphics/SVG/1.1/DTD/svg11.dtd"><svg width="100%" height="100%" viewBox="0 0 93 69" version="1.1" xmlns="http://www.w3.org/2000/svg" xmlns:xlink="http://www.w3.org/1999/xlink" xml:space="preserve" xmlns:serif="http://www.serif.com/" style="fill-rule:evenodd;clip-rule:evenodd;stroke-linejoin:round;stroke-miterlimit:2;"><g><path d="M87.925,38.229c-0.618,0.514 -1.162,0.983 -1.724,1.433c-2.832,2.265 -5.758,4.419 -8.918,6.254c-2.499,1.451 -5.164,2.585 -8.037,3.216c-2.117,0.465 -4.24,0.61 -6.352,-0.027c-1.36,-0.41 -2.524,-1.111 -3.396,-2.2c-0.541,-0.674 -0.747,-1.442 -0.623,-2.282c0.17,-1.148 0.345,-2.294 0.527,-3.44c0.208,-1.318 -0.841,-2.249 -2.203,-1.94c-2.322,0.528 -4.645,1.06 -6.967,1.59c-0.081,0.019 -0.163,0.032 -0.3,0.059c0.053,-0.143 0.086,-0.248 0.127,-0.349c2.832,-7.084 5.669,-14.168 8.496,-21.254c0.287,-0.721 0.529,-1.46 0.773,-2.197c0.365,-1.108 0.033,-2.048 -0.876,-2.778c-1.2,-0.963 -2.594,-1.109 -4.074,-0.737c-3.082,0.776 -6.158,1.575 -9.245,2.334c-6.103,1.5 -12.212,2.983 -18.32,4.463c-1.169,0.283 -2.351,0.522 -3.526,0.78c-0.082,0.018 -0.167,0.023 -0.311,0.042c0.06,-0.153 0.099,-0.267 0.15,-0.376c4.796,-10.219 12.898,-16.788 24.243,-19.729c3.97,-1.029 8.033,-1.303 12.135,-0.939c7.457,0.662 14.047,3.301 19.843,7.796c1.968,1.526 1.607,4.207 -0.275,5.24c-0.546,0.3 -1.22,0.415 -1.852,0.543c-2.12,0.429 -4.209,0.961 -6.019,2.136c-3.56,2.313 -5.665,5.528 -6.358,9.574c-0.291,1.696 0.246,3.235 0.992,4.739c1.31,2.641 3.528,4.286 6.38,5.2c3.949,1.266 7.913,1.263 11.861,-0.025c1.407,-0.459 2.809,-0.94 4.192,-1.462c2.069,-0.78 4.05,0.568 3.887,2.678c-0.629,8.127 -3.867,15.183 -9.738,21.112c-5.141,5.19 -11.443,8.469 -18.767,9.977c-2.223,0.457 -4.472,0.685 -6.748,0.728c-5.359,0.101 -10.476,-0.905 -15.363,-2.982c-0.422,-0.179 -0.838,-0.41 -1.187,-0.695c-0.654,-0.535 -0.704,-1.248 -0.208,-1.918c0.73,-0.985 2.009,-1.322 3.165,-0.838c3.669,1.537 7.503,2.44 11.515,2.565c8.997,0.281 16.842,-2.469 23.412,-8.315c5.259,-4.679 8.374,-10.485 9.587,-17.222c0.041,-0.224 0.063,-0.451 0.105,-0.754" style="fill:#b91f2d;fill-rule:nonzero;"/><path d="M19.497,50.716c2.007,-0.51 3.956,-1.003 5.905,-1.5c9.488,-2.419 18.976,-4.839 28.466,-7.259c0.905,-0.231 1.657,0.007 2.113,0.669c0.413,0.6 0.372,1.396 -0.101,1.97c-0.288,0.35 -0.683,0.521 -1.121,0.632c-3.819,0.968 -7.637,1.937 -11.454,2.91c-8.681,2.212 -17.36,4.426 -26.04,6.638c-1.159,0.295 -2.174,-0.242 -2.355,-1.292c-0.054,-0.307 -0.005,-0.662 0.106,-0.958c1.02,-2.721 2.064,-5.434 3.099,-8.15c0.223,-0.584 0.654,-0.948 1.284,-1.108c8.371,-2.133 16.741,-4.268 25.114,-6.394c0.256,-0.065 0.388,-0.174 0.474,-0.411c1.807,-5.023 3.625,-10.044 5.438,-15.065c0.036,-0.098 0.065,-0.197 0.115,-0.347c-0.894,0.224 -1.744,0.435 -2.595,0.652c-12.189,3.104 -24.377,6.208 -36.563,9.318c-0.913,0.233 -1.655,0.055 -2.216,-0.687c-1.426,-1.884 -3.308,-3.334 -5.114,-4.856c-1.125,-0.948 -2.253,-1.892 -3.373,-2.846c-0.82,-0.698 -0.905,-1.733 -0.214,-2.47c0.656,-0.7 1.775,-0.721 2.58,-0.043c2.167,1.826 4.346,3.639 6.492,5.488c0.58,0.5 1.063,1.105 1.573,1.674c0.163,0.182 0.297,0.239 0.56,0.172c9.807,-2.507 19.618,-5.004 29.428,-7.502c3.866,-0.984 7.731,-1.965 11.593,-2.956c0.745,-0.191 1.403,-0.087 1.93,0.457c0.53,0.546 0.564,1.181 0.315,1.867c-2.309,6.368 -4.616,12.737 -6.904,19.112c-0.287,0.799 -0.796,1.252 -1.657,1.47c-8.304,2.1 -16.601,4.22 -24.903,6.329c-0.223,0.057 -0.353,0.149 -0.432,0.365c-0.48,1.29 -0.976,2.575 -1.464,3.861c-0.024,0.065 -0.041,0.133 -0.079,0.259" style="fill:#f3e20c;fill-rule:nonzero;"/><path d="M44.98,56.29c-2.153,-0.008 -3.853,-1.645 -3.844,-3.704c0.009,-2.013 1.746,-3.625 3.896,-3.618c2.115,0.006 3.819,1.664 3.809,3.703c-0.01,1.997 -1.75,3.626 -3.862,3.619" style="fill:#f3e20c;fill-rule:nonzero;"/><path d="M21.332,55.004c2.13,0.003 3.83,1.638 3.826,3.68c-0.004,2.017 -1.743,3.651 -3.876,3.64c-2.126,-0.012 -3.836,-1.657 -3.828,-3.687c0.006,-2.022 1.729,-3.635 3.878,-3.632" style="fill:#f3e20c;fill-rule:nonzero;"/></g></svg>